<?xml version="1.0" encoding="UTF-8"?><svg id="Calque_2" xmlns="http://www.w3.org/2000/svg" viewBox="0 0 81.44 92.59"><defs><style>.cls-1{fill:#fff;stroke:#fff;stroke-miterlimit:10;}</style></defs><g id="Calque_1-2"><rect class="cls-1" x="39.89" y="-6.04" width=".68" height="104.99" transform="translate(-20.53 37.23) rotate(-40.48)"/><rect class="cls-1" x="-12.09" y="45.98" width="104.7" height=".68" transform="translate(-21.1 47.17) rotate(-49.79)"/><path class="cls-1" d="M4.43,92.09c-1.91,0-3.46-1.55-3.46-3.46s1.55-3.46,3.46-3.46,3.46,1.55,3.46,3.46-1.55,3.46-3.46,3.46ZM4.43,85.85c-1.53,0-2.78,1.25-2.78,2.78s1.25,2.78,2.78,2.78,2.78-1.25,2.78-2.78-1.25-2.78-2.78-2.78Z"/><path class="cls-1" d="M76.08,92.09c-1.91,0-3.46-1.55-3.46-3.46s1.55-3.46,3.46-3.46,3.46,1.55,3.46,3.46-1.55,3.46-3.46,3.46ZM76.08,85.85c-1.53,0-2.78,1.25-2.78,2.78s1.25,2.78,2.78,2.78,2.78-1.25,2.78-2.78-1.25-2.78-2.78-2.78Z"/><path class="cls-1" d="M4.43,7.42c-1.91,0-3.46-1.55-3.46-3.46S2.53.5,4.43.5s3.46,1.55,3.46,3.46-1.55,3.46-3.46,3.46ZM4.43,1.18c-1.53,0-2.78,1.25-2.78,2.78s1.25,2.78,2.78,2.78,2.78-1.25,2.78-2.78-1.25-2.78-2.78-2.78Z"/><path class="cls-1" d="M76.08,7.42c-1.91,0-3.46-1.55-3.46-3.46s1.55-3.46,3.46-3.46,3.46,1.55,3.46,3.46-1.55,3.46-3.46,3.46ZM76.08,1.18c-1.53,0-2.78,1.25-2.78,2.78s1.25,2.78,2.78,2.78,2.78-1.25,2.78-2.78-1.25-2.78-2.78-2.78Z"/><path class="cls-1" d="M15.84,7.42c-1.91,0-3.46-1.55-3.46-3.46s1.55-3.46,3.46-3.46,3.46,1.55,3.46,3.46-1.55,3.46-3.46,3.46ZM15.84,1.18c-1.53,0-2.78,1.25-2.78,2.78s1.25,2.78,2.78,2.78,2.78-1.25,2.78-2.78-1.25-2.78-2.78-2.78Z"/><path class="cls-1" d="M64.67,7.42c-1.91,0-3.46-1.55-3.46-3.46s1.55-3.46,3.46-3.46,3.46,1.55,3.46,3.46-1.55,3.46-3.46,3.46ZM64.67,1.18c-1.53,0-2.78,1.25-2.78,2.78s1.25,2.78,2.78,2.78,2.78-1.25,2.78-2.78-1.25-2.78-2.78-2.78Z"/><path class="cls-1" d="M39.06,13.66c-7.23,0-14.36-2.1-22.24-6.28l.32-.6c15.97,8.47,28.81,8.26,45.78-.74l.32.6c-8.83,4.68-16.56,7.01-24.18,7.01Z"/><path class="cls-1" d="M39.98,25.36c-9.51,0-17-9.32-23.28-18.08l.55-.4c6.28,8.76,13.74,18.04,23.14,17.79,7.27-.22,14.8-6.45,22.39-18.51l.58.36c-7.83,12.44-15.34,18.6-22.95,18.83-.15,0-.29,0-.44,0Z"/><path class="cls-1" d="M40.83,18.52c-8.06,0-15.83-4.47-24.06-11.18l.43-.53c15.2,12.39,28.78,17,45.64-.71l.49.47c-8.07,8.47-15.39,11.95-22.5,11.95Z"/><path class="cls-1" d="M15.84,92.09c-1.91,0-3.46-1.55-3.46-3.46s1.55-3.46,3.46-3.46,3.46,1.55,3.46,3.46-1.55,3.46-3.46,3.46ZM15.84,85.85c-1.53,0-2.78,1.25-2.78,2.78s1.25,2.78,2.78,2.78,2.78-1.25,2.78-2.78-1.25-2.78-2.78-2.78Z"/><path class="cls-1" d="M64.67,92.09c-1.91,0-3.46-1.55-3.46-3.46s1.55-3.46,3.46-3.46,3.46,1.55,3.46,3.46-1.55,3.46-3.46,3.46ZM64.67,85.85c-1.53,0-2.78,1.25-2.78,2.78s1.25,2.78,2.78,2.78,2.78-1.25,2.78-2.78-1.25-2.78-2.78-2.78Z"/><path class="cls-1" d="M17.14,86.03l-.32-.6c17.2-9.12,30.22-9.33,46.42-.74l-.32.6c-15.97-8.47-28.81-8.26-45.78.74Z"/><path class="cls-1" d="M17.26,85.91l-.58-.36c7.83-12.44,15.34-18.6,22.95-18.83,9.71-.28,17.34,9.18,23.71,18.07l-.55.4c-6.28-8.76-13.76-18.05-23.14-17.79-7.27.22-14.8,6.45-22.39,18.51Z"/><path class="cls-1" d="M17.22,85.96l-.49-.47c17.22-18.09,31.07-13.39,46.56-.76l-.43.53c-15.2-12.38-28.78-17-45.64.71Z"/><path class="cls-1" d="M77.48,23.82c-1.91,0-3.46-1.55-3.46-3.46s1.55-3.46,3.46-3.46,3.46,1.55,3.46,3.46-1.55,3.46-3.46,3.46ZM77.48,17.58c-1.53,0-2.78,1.25-2.78,2.78s1.25,2.78,2.78,2.78,2.78-1.25,2.78-2.78-1.25-2.78-2.78-2.78Z"/><path class="cls-1" d="M76.96,75.69c-1.91,0-3.46-1.55-3.46-3.46s1.55-3.46,3.46-3.46,3.46,1.55,3.46,3.46-1.55,3.46-3.46,3.46ZM76.96,69.45c-1.53,0-2.78,1.25-2.78,2.78s1.25,2.78,2.78,2.78,2.78-1.25,2.78-2.78-1.25-2.78-2.78-2.78Z"/><path class="cls-1" d="M76.11,69.29c-9.12-17.2-9.33-30.21-.74-46.42l.6.32c-8.47,15.97-8.26,28.81.74,45.78l-.6.32Z"/><path class="cls-1" d="M76.23,69.42c-12.44-7.83-18.6-15.34-18.83-22.95-.29-9.72,9.18-17.34,18.07-23.72l.4.55c-8.76,6.28-18.07,13.76-17.79,23.14.22,7.27,6.45,14.8,18.51,22.39l-.36.58Z"/><path class="cls-1" d="M76.18,69.37c-18.09-17.22-13.39-31.07-.76-46.56l.53.43c-12.39,15.2-17,28.78.71,45.64l-.47.49Z"/><path class="cls-1" d="M3.96,24.16c-1.91,0-3.46-1.55-3.46-3.46s1.55-3.46,3.46-3.46,3.46,1.55,3.46,3.46-1.55,3.46-3.46,3.46ZM3.96,17.92c-1.53,0-2.78,1.25-2.78,2.78s1.25,2.78,2.78,2.78,2.78-1.25,2.78-2.78-1.25-2.78-2.78-2.78Z"/><path class="cls-1" d="M5.32,75.35c-1.91,0-3.46-1.55-3.46-3.46s1.55-3.46,3.46-3.46,3.46,1.55,3.46,3.46-1.55,3.46-3.46,3.46ZM5.32,69.11c-1.53,0-2.78,1.25-2.78,2.78s1.25,2.78,2.78,2.78,2.78-1.25,2.78-2.78-1.25-2.78-2.78-2.78Z"/><path class="cls-1" d="M7.33,69.63l-.6-.32c8.47-15.97,8.26-28.81-.74-45.78l.6-.32c9.12,17.2,9.33,30.21.74,46.42Z"/><path class="cls-1" d="M7.23,69.74l-.4-.55c8.76-6.28,18.07-13.76,17.79-23.14-.22-7.27-6.45-14.8-18.51-22.39l.36-.58c12.44,7.83,18.6,15.34,18.83,22.95.29,9.72-9.18,17.34-18.07,23.72Z"/><path class="cls-1" d="M7.29,69.68l-.53-.43c12.39-15.2,17-28.78-.71-45.64l.47-.49c18.09,17.22,13.39,31.07.76,46.56Z"/></g></svg>